<svg width="35" height="35" viewBox="0 0 35 35" fill="none" xmlns="http://www.w3.org/2000/svg">
<rect width="35" height="35" rx="17.5" fill="#53B175"/>
<path d="M23.6836 10.0572C24.4651 9.78418 25.2158 10.5349 24.9428 11.3164L20.3853 24.3385C20.0892 25.1831 18.9123 25.2308 18.5492 24.4131L16.3501 19.4658L19.4454 16.3699C19.5473 16.2605 19.6027 16.1159 19.6001 15.9664C19.5975 15.817 19.5369 15.6744 19.4312 15.5687C19.3255 15.463 19.1829 15.4024 19.0335 15.3998C18.884 15.3972 18.7394 15.4526 18.63 15.5545L15.534 18.6497L10.5866 16.4506C9.76894 16.0868 9.8174 14.9107 10.6612 14.6146L23.6836 10.0572Z" fill="white"/>
</svg>
