<svg width="29" height="11" viewBox="0 0 29 11" fill="none" xmlns="http://www.w3.org/2000/svg">
<path d="M0.639039 10.5793C1.0483 10.8487 1.60333 11 2.18205 11C2.76077 11 3.3158 10.8487 3.72506 10.5793L14.5278 3.46716L25.3306 10.5793C25.7442 10.8328 26.291 10.9708 26.856 10.9642C27.421 10.9577 27.9601 10.8071 28.3599 10.5442C28.7597 10.2813 28.989 9.92649 28.9996 9.55452C29.0102 9.18256 28.8012 8.8224 28.4166 8.54982L16.0725 0.420718C15.6633 0.151334 15.1083 0 14.5295 0C13.9508 0 13.3958 0.151334 12.9865 0.420718L0.639039 8.54757C0.229864 8.81701 0 9.18242 0 9.56343C0 9.94443 0.229864 10.3098 0.639039 10.5793Z" fill="black" fill-opacity="0.5"/>
</svg>
