<svg width="24" height="24" viewBox="0 0 24 24" fill="none" xmlns="http://www.w3.org/2000/svg">
<circle cx="12" cy="12" r="12" fill="#53B175"/>
<path d="M13.9457 7.524C14.2812 7.18844 14.7362 6.99989 15.2108 6.99985C15.6853 6.9998 16.1404 7.18826 16.4759 7.52375C16.8115 7.85925 17 8.31431 17.0001 8.78883C17.0001 9.26334 16.8117 9.71844 16.4762 10.054L16.0302 10.5005L13.5002 7.97L13.9457 7.524ZM12.9702 8.5005L7.97018 13.5C7.76695 13.703 7.62413 13.9585 7.55768 14.238L7.01018 16.539C6.99535 16.6013 6.99674 16.6664 7.01421 16.728C7.03169 16.7897 7.06466 16.8458 7.10998 16.8911C7.15531 16.9364 7.21147 16.9693 7.27313 16.9867C7.33478 17.0041 7.39987 17.0054 7.46218 16.9905L9.76268 16.4425C10.0423 16.3761 10.298 16.2333 10.5012 16.03L15.5002 11.0305L12.9702 8.5005Z" fill="white"/>
</svg>
