<svg width="86" height="42" viewBox="0 0 86 42" fill="none" xmlns="http://www.w3.org/2000/svg">
<path d="M13.5582 26.1991C12.5495 28.0811 1.04519 23.8268 0.776708 23.9724L0.77594 23.9891C0.652953 26.6608 2.70164 28.9399 5.37287 28.9317C8.16822 28.923 10.6412 28.7492 14.1157 28.3995C16.3361 32.2889 17.8453 34.1118 20.8001 37.0074L20.3642 34.8791C19.8986 32.6059 18.4049 30.7475 17.2181 28.7608C16.8176 28.0905 16.5025 27.3281 16.1813 26.3518C17.3201 24.0972 18.8881 21.8209 18.8765 19.3055L18.848 13.1541C17.9736 11.7591 14.5964 24.2618 13.5582 26.1991Z" fill="#3B6154"/>
<path d="M0.785668 24.0862C0.782903 24.0835 0.777626 23.9914 0.77594 23.9891M0.78273 23.9974L0.776708 23.9724M0.77594 23.9891C0.770314 23.9812 0.770653 23.9757 0.776708 23.9724C1.04519 23.8268 12.5495 28.0811 13.5582 26.1991C14.5964 24.2618 17.9736 11.7591 18.848 13.1541L18.8765 19.3055C18.8881 21.8209 17.3201 24.0972 16.1813 26.3518C16.5025 27.3281 16.8176 28.0905 17.2181 28.7608C18.4049 30.7475 19.8986 32.6059 20.3642 34.8791L20.8001 37.0074C17.8453 34.1118 16.3361 32.2889 14.1157 28.3995C10.6412 28.7492 8.16822 28.923 5.37287 28.9317C2.70164 28.9399 0.652953 26.6608 0.77594 23.9891ZM0.776708 23.9724L0.77594 23.9891" stroke="#3B6154"/>
<path d="M13.1613 27.001C14.5529 20.3833 18.5232 11.6468 18.5352 13.136L13.1613 27.001Z" fill="#3B6154" stroke="#3B6154" stroke-width="3"/>
<path d="M22.5697 8.511C26.0598 4.62546 33.3777 0.879822 33.1908 3.28726C33.4748 6.16865 32.9768 8.00838 31.7666 10.1997C31.0673 11.4659 30.5008 12.4165 29.2552 13.1512C27.1868 14.3711 24.9301 15.9664 25.1249 18.353C25.2178 19.4907 25.3938 20.8124 25.5402 22.2024C27.4573 20.8333 29.357 20.1235 30.3058 20.4635C31.2545 20.8036 31.808 25.1495 31.1079 25.9581C29.2269 28.1302 26.0479 30.3843 28.092 32.3783C28.1547 32.4395 28.2167 32.4854 28.2776 32.5141C28.9678 32.839 33.1295 32.9126 33.9233 33.4109C34.7171 33.9093 36.7849 39.6125 35.9521 40.5436C35.1193 41.4746 29.732 41.0877 24.7891 37.1378C18.2626 30.12 19.0795 12.3965 22.5697 8.511Z" fill="#53B175" stroke="#53B175"/>
<path d="M48.9114 4.65563C47.5649 2.54569 42.6269 1.10289 37.9929 2.07056C35.4706 3.41297 34.8235 5.28347 34.128 9.29094C32.7154 21.9056 33.6267 27.7108 37.9929 36.0331C40.6241 39.2138 42.2054 39.7195 45.8195 39.5987C49.9177 39.1647 51.8794 38.461 54.1291 35.4982C55.1031 32.1901 53.9573 29.5034 50.0709 28.6344C47.5599 28.5809 46.9567 29.8258 44.1769 30.239C41.0071 29.1357 36.6051 14.274 40.6984 10.2715C41.4528 9.33671 42.0671 9.35178 42.9208 9.29094C43.7027 9.34423 44.3444 9.53152 45.8195 10.2715C49.5915 10.4505 50.375 6.66266 48.9114 4.65563Z" fill="#3B6154" stroke="#3B6154" stroke-width="3"/>
<path fill-rule="evenodd" clip-rule="evenodd" d="M53.31 4.76463C54.2433 4.03612 55.5566 4.26209 56.7143 4.51C62.4101 5.72969 78.0369 10.2395 83.7971 0.780151C81.4276 18.5837 67.8926 34.3267 61.3703 32.2628C54.8479 30.199 52.1948 26.1979 50.2527 16.7432C48.9665 10.9177 51.31 6.32578 53.31 4.76463ZM65.2998 14.1713C70.1408 15.0016 72.3234 14.1002 75.9381 11.7769C71.4022 18.1412 66.6745 21.419 60.6994 21.5321C56.92 20.9361 55.6938 17.7949 57.345 14.8808C59.2954 13.2516 60.9339 12.975 65.2998 14.1713Z" fill="#53B175" stroke="#53B175" stroke-width="3"/>
</svg>
