<svg width="29" height="11" viewBox="0 0 29 11" fill="none" xmlns="http://www.w3.org/2000/svg">
<path d="M0.639039 0.420716C1.0483 0.151332 1.60333 0 2.18205 0C2.76077 0 3.3158 0.151332 3.72506 0.420716L14.5278 7.53284L25.3306 0.420716C25.7442 0.167224 26.291 0.0292349 26.856 0.0357828C27.421 0.0423307 27.9601 0.192905 28.3599 0.455825C28.7597 0.718744 28.989 1.07351 28.9996 1.44548C29.0102 1.81744 28.8012 2.1776 28.4166 2.45018L16.0725 10.5793C15.6633 10.8487 15.1083 11 14.5295 11C13.9508 11 13.3958 10.8487 12.9865 10.5793L0.639039 2.45243C0.229864 2.18299 0 1.81758 0 1.43657C0 1.05557 0.229864 0.690158 0.639039 0.420716Z" fill="black" fill-opacity="0.5"/>
</svg>
