<svg width="18" height="19" viewBox="0 0 18 19" fill="none" xmlns="http://www.w3.org/2000/svg">
<path d="M2.16667 16.7917H5.41667V11.375C5.41667 11.0681 5.52067 10.8109 5.72867 10.6037C5.93667 10.3964 6.19378 10.2924 6.5 10.2917H10.8333C11.1403 10.2917 11.3978 10.3957 11.6058 10.6037C11.8138 10.8117 11.9174 11.0688 11.9167 11.375V16.7917H15.1667V7.04167L8.66667 2.16667L2.16667 7.04167V16.7917ZM0 16.7917V7.04167C0 6.69861 0.0769165 6.37361 0.23075 6.06667C0.384583 5.75972 0.596556 5.50694 0.866667 5.30833L7.36667 0.433333C7.74583 0.144445 8.17917 0 8.66667 0C9.15417 0 9.5875 0.144445 9.96667 0.433333L16.4667 5.30833C16.7375 5.50694 16.9498 5.75972 17.1037 6.06667C17.2575 6.37361 17.3341 6.69861 17.3333 7.04167V16.7917C17.3333 17.3875 17.121 17.8978 16.6963 18.3224C16.2717 18.7471 15.7618 18.9591 15.1667 18.9583H10.8333C10.5264 18.9583 10.2693 18.8543 10.062 18.6463C9.85472 18.4383 9.75072 18.1812 9.75 17.875V12.4583H7.58333V17.875C7.58333 18.1819 7.47933 18.4394 7.27133 18.6474C7.06333 18.8554 6.80622 18.9591 6.5 18.9583H2.16667C1.57083 18.9583 1.06094 18.7464 0.637 18.3224C0.213055 17.8985 0.000722222 17.3882 0 16.7917Z" fill="black"/>
</svg>
