<svg width="18" height="20" viewBox="0 0 18 20" fill="none" xmlns="http://www.w3.org/2000/svg">
<path d="M0 16.9714V7.11702C0 6.7703 0.0777396 6.44182 0.233219 6.13159C0.388699 5.82136 0.60294 5.56588 0.875942 5.36514L7.4455 0.437971C7.82873 0.14599 8.2667 0 8.75941 0C9.25213 0 9.6901 0.14599 10.0733 0.437971L16.6429 5.36514C16.9166 5.56588 17.1312 5.82136 17.2867 6.13159C17.4422 6.44182 17.5196 6.7703 17.5188 7.11702V16.9714C17.5188 17.5736 17.3042 18.0893 16.875 18.5185C16.4458 18.9477 15.9305 19.1619 15.329 19.1612H12.0442C11.734 19.1612 11.4741 19.0561 11.2646 18.8459C11.0551 18.6357 10.95 18.3758 10.9493 18.0663V12.5917C10.9493 12.2814 10.8442 12.0216 10.6339 11.8121C10.4237 11.6026 10.1638 11.4975 9.85434 11.4967H7.66449C7.35426 11.4967 7.0944 11.6018 6.8849 11.8121C6.6754 12.0223 6.57029 12.2822 6.56956 12.5917V18.0663C6.56956 18.3765 6.46445 18.6367 6.25422 18.847C6.044 19.0572 5.78413 19.1619 5.47463 19.1612H2.18985C1.58764 19.1612 1.0723 18.947 0.643817 18.5185C0.215335 18.09 0.000729951 17.5743 0 16.9714Z" fill="black"/>
</svg>
