<svg width="22" height="22" viewBox="0 0 22 22" fill="none" xmlns="http://www.w3.org/2000/svg">
<path d="M13.2058 13.2058L4.33333 17.3333L8.46083 8.46083L17.3333 4.33333M10.8333 0C9.41068 0 8.00196 0.280212 6.6876 0.824638C5.37323 1.36906 4.17898 2.16704 3.17301 3.17301C1.14137 5.20465 0 7.96015 0 10.8333C0 13.7065 1.14137 16.462 3.17301 18.4937C4.17898 19.4996 5.37323 20.2976 6.6876 20.842C8.00196 21.3865 9.41068 21.6667 10.8333 21.6667C13.7065 21.6667 16.462 20.5253 18.4937 18.4937C20.5253 16.462 21.6667 13.7065 21.6667 10.8333C21.6667 9.41068 21.3865 8.00196 20.842 6.6876C20.2976 5.37323 19.4996 4.17898 18.4937 3.17301C17.4877 2.16704 16.2934 1.36906 14.9791 0.824638C13.6647 0.280212 12.256 0 10.8333 0ZM10.8333 9.64167C10.5173 9.64167 10.2142 9.76722 9.9907 9.9907C9.76722 10.2142 9.64167 10.5173 9.64167 10.8333C9.64167 11.1494 9.76722 11.4525 9.9907 11.676C10.2142 11.8994 10.5173 12.025 10.8333 12.025C11.1494 12.025 11.4525 11.8994 11.676 11.676C11.8994 11.4525 12.025 11.1494 12.025 10.8333C12.025 10.5173 11.8994 10.2142 11.676 9.9907C11.4525 9.76722 11.1494 9.64167 10.8333 9.64167Z" fill="black"/>
</svg>
