<svg width="20" height="20" viewBox="0 0 20 20" fill="none" xmlns="http://www.w3.org/2000/svg">
<path fill-rule="evenodd" clip-rule="evenodd" d="M5.41667 4.33333C5.41667 3.18406 5.87321 2.08186 6.68587 1.2692C7.49853 0.456546 8.60073 0 9.75 0C10.8993 0 12.0015 0.456546 12.8141 1.2692C13.6268 2.08186 14.0833 3.18406 14.0833 4.33333C14.0833 5.4826 13.6268 6.58481 12.8141 7.39746C12.0015 8.21012 10.8993 8.66667 9.75 8.66667C8.60073 8.66667 7.49853 8.21012 6.68587 7.39746C5.87321 6.58481 5.41667 5.4826 5.41667 4.33333ZM5.41667 10.8333C3.98008 10.8333 2.60233 11.404 1.5865 12.4198C0.570683 13.4357 0 14.8134 0 16.25C0 17.112 0.34241 17.9386 0.951903 18.5481C1.5614 19.1576 2.38805 19.5 3.25 19.5H16.25C17.112 19.5 17.9386 19.1576 18.5481 18.5481C19.1576 17.9386 19.5 17.112 19.5 16.25C19.5 14.8134 18.9293 13.4357 17.9135 12.4198C16.8977 11.404 15.5199 10.8333 14.0833 10.8333H5.41667Z" fill="black"/>
</svg>
