<svg width="32" height="32" viewBox="0 0 32 32" fill="none" xmlns="http://www.w3.org/2000/svg">
<path d="M5.24977 5.25063H10.5003V2.62537H5.24977C3.80588 2.62537 2.62451 3.80673 2.62451 5.25063V10.5012H5.24977V5.25063ZM5.24977 21.0022H2.62451V26.2527C2.62451 27.6966 3.80588 28.878 5.24977 28.878H10.5003V26.2527H5.24977V21.0022ZM26.2519 26.2527H21.0014V28.878H26.2519C27.6958 28.878 28.8771 27.6966 28.8771 26.2527V21.0022H26.2519V26.2527ZM26.2519 2.62537H21.0014V5.25063H26.2519V10.5012H28.8771V5.25063C28.8771 3.80673 27.6958 2.62537 26.2519 2.62537Z" fill="white"/>
<path d="M12.4693 6.56335H8.53145C7.44196 6.56335 6.5625 7.44282 6.5625 8.5323V12.4702C6.5625 13.5597 7.44196 14.4391 8.53145 14.4391H12.4693C13.5588 14.4391 14.4383 13.5597 14.4383 12.4702V8.5323C14.4383 7.44282 13.5588 6.56335 12.4693 6.56335ZM11.813 11.8139H9.18776V9.18862H11.813V11.8139ZM12.4693 17.0644H8.53145C7.44196 17.0644 6.5625 17.9439 6.5625 19.0334V22.9712C6.5625 24.0607 7.44196 24.9402 8.53145 24.9402H12.4693C13.5588 24.9402 14.4383 24.0607 14.4383 22.9712V19.0334C14.4383 17.9439 13.5588 17.0644 12.4693 17.0644ZM11.813 22.3149H9.18776V19.6897H11.813V22.3149ZM19.0325 14.4391H22.9704C24.0599 14.4391 24.9393 13.5597 24.9393 12.4702V8.5323C24.9393 7.44282 24.0599 6.56335 22.9704 6.56335H19.0325C17.943 6.56335 17.0636 7.44282 17.0636 8.5323V12.4702C17.0636 13.5597 17.943 14.4391 19.0325 14.4391ZM19.6888 9.18862H22.3141V11.8139H19.6888V9.18862ZM17.0636 17.0644H19.6888V19.6897H17.0636V17.0644ZM19.6888 19.6897H22.3141V22.3149H19.6888V19.6897ZM22.3141 22.3149H24.9393V24.9402H22.3141V22.3149ZM22.3141 17.0644H24.9393V19.6897H22.3141V17.0644Z" fill="white"/>
</svg>
