<svg width="12" height="20" viewBox="0 0 12 20" fill="none" xmlns="http://www.w3.org/2000/svg">
<path d="M11.541 19.5593C11.8349 19.277 12 18.8943 12 18.4951C12 18.096 11.8349 17.7132 11.541 17.431L3.78236 9.98081L11.541 2.53062C11.8176 2.24538 11.9681 1.86825 11.961 1.4786C11.9538 1.08895 11.7896 0.717142 11.5027 0.44142C11.2159 0.165697 10.8289 0.00755501 10.4231 0.000265121C10.0173 -0.00702477 9.62443 0.137108 9.32707 0.402334L0.458965 8.91549C0.165091 9.19774 0 9.58051 0 9.97963C0 10.3788 0.165091 10.7615 0.458965 11.0438L9.32462 19.5593C9.61856 19.8415 10.0172 20 10.4328 20C10.8485 20 11.2471 19.8415 11.541 19.5593Z" fill="black"/>
</svg>
